<svg width="28" height="28" viewBox="0 0 28 28" fill="none" xmlns="http://www.w3.org/2000/svg">
<path d="M10.2075 6.04959C15.7075 2.04959 21.7075 4.54958 21.7075 8.04958C21.7075 11.3135 20.2075 14.0496 12.2075 12.5496C4.20748 11.0496 0.830994 18.9934 7.70749 22.0496C12.2075 24.0496 21.2075 23.0496 22.7075 17.0496" stroke="#313435" stroke-width="1.16"/>
<path d="M16.9471 19.3209C16.424 19.4981 16.1437 20.0659 16.3209 20.5889C16.4982 21.112 17.0659 21.3924 17.5889 21.2151C18.112 21.0379 18.3924 20.4702 18.2151 19.9471C18.0379 19.424 17.4702 19.1437 16.9471 19.3209Z" fill="#8710BF"/>
<path d="M15.0563 5.02836C14.5042 5.01269 14.044 5.44753 14.0284 5.9996C14.0127 6.55166 14.4475 7.01189 14.9996 7.02755C15.5517 7.04322 16.0119 6.60838 16.0275 6.05631C16.0432 5.50425 15.6084 5.04402 15.0563 5.02836Z" fill="#DC1313"/>
<path d="M5.99975 17.0221C6.55189 17.0345 7.00959 16.597 7.02205 16.0449C7.03451 15.4927 6.59701 15.035 6.04487 15.0226C5.49272 15.0101 5.03502 15.4476 5.02256 15.9998C5.0101 16.5519 5.4476 17.0096 5.99975 17.0221Z" fill="#FB7901"/>
<path d="M9.33246 9.17385C8.78858 9.07784 8.26985 9.4409 8.17384 9.98478C8.07782 10.5287 8.44089 11.0474 8.98476 11.1434C9.52863 11.2394 10.0474 10.8763 10.1434 10.3325C10.2394 9.7886 9.87633 9.26987 9.33246 9.17385Z" fill="#1579C1"/>
<path d="M5.94712 22.3209C5.42404 22.4981 5.14368 23.0659 5.32092 23.5889C5.49815 24.112 6.06587 24.3924 6.58894 24.2151C7.11201 24.0379 7.39237 23.4702 7.21514 22.9471C7.0379 22.424 6.47019 22.1437 5.94712 22.3209Z" fill="#00C608"/>
<path d="M22.9471 8.32091C22.424 8.49815 22.1437 9.06586 22.3209 9.58893C22.4982 10.112 23.0659 10.3924 23.5889 10.2151C24.112 10.0379 24.3924 9.47018 24.2151 8.94711C24.0379 8.42404 23.4702 8.14368 22.9471 8.32091Z" fill="#00C608"/>
</svg>
