<svg width="19" height="22" viewBox="0 0 19 22" fill="none" xmlns="http://www.w3.org/2000/svg">
<path d="M10.7351 0.263771C11.2936 -0.294704 12.1623 0.574034 11.6039 1.13251L9.80433 2.93204C14.5824 3.2423 18.3056 7.27573 18.3056 12.0538C18.3056 17.1421 14.2101 21.2376 9.18381 21.2376C4.09548 21.2376 0 17.1421 0 12.0538C0 11.2471 1.24106 11.2471 1.24106 12.0538C1.24106 16.4595 4.77806 19.9965 9.18381 19.9965C13.5275 19.9965 17.0645 16.4595 17.0645 12.0538C17.0645 7.89626 13.8378 4.48336 9.74228 4.17309L11.6039 6.03468C12.1623 6.6552 11.2936 7.52394 10.7351 6.90341L7.81865 4.04899C7.57044 3.80078 7.57044 3.42846 7.81865 3.18025L10.7351 0.263771Z" fill="#325661"/>
</svg>
