<svg width="28" height="28" viewBox="0 0 28 28" fill="none" xmlns="http://www.w3.org/2000/svg">
<path d="M7.65931 14.3779C7.53675 15.4282 7.68016 16.4924 8.07637 17.4728C8.47258 18.4531 9.10887 19.3182 9.92676 19.9884C10.1836 20.1957 10.3922 20.4565 10.5378 20.7528C10.6834 21.049 10.7626 21.3735 10.7698 21.7035V26.4419H17.3395V21.7907C17.3415 21.4655 17.4125 21.1445 17.5478 20.8488C17.6831 20.5532 17.8796 20.2896 18.1244 20.0756C18.8503 19.4867 19.4396 18.7473 19.8515 17.9083C20.2635 17.0693 20.4883 16.1509 20.5104 15.2165C20.5326 14.2821 20.3514 13.3541 19.9796 12.4965C19.6078 11.639 19.0542 10.8725 18.357 10.25C17.4713 9.46441 16.3866 8.9376 15.2215 8.72722C14.0565 8.51685 12.856 8.631 11.7515 9.0572C10.647 9.4834 9.68096 10.2052 8.9592 11.1437C8.23745 12.0821 7.78775 13.201 7.65931 14.3779ZM11.9326 25.2791V22.4302H16.1768V25.2791H11.9326ZM17.5721 11.1221C18.1475 11.6334 18.6043 12.2641 18.9108 12.9701C19.2173 13.6761 19.3661 14.4406 19.3467 15.21C19.3273 15.9795 19.1403 16.7355 18.7986 17.4252C18.457 18.1149 17.969 18.7218 17.3686 19.2035C16.7521 19.7348 16.3408 20.4649 16.2058 21.2674H11.9035C11.7771 20.4158 11.3427 19.64 10.6826 19.0872C10.0066 18.5437 9.48089 17.8364 9.15527 17.0325C8.82964 16.2287 8.71496 15.3549 8.8221 14.4942C8.9319 13.5341 9.30253 12.6225 9.89378 11.8581C10.485 11.0938 11.2743 10.506 12.176 10.1585C13.0777 9.81104 14.0573 9.71713 15.0086 9.887C15.9598 10.0569 16.8464 10.484 17.5721 11.1221Z" fill="#313435"/>
<path d="M14.6361 1.5H13.4733V6.00291H14.6361V1.5Z" fill="#313435"/>
<path d="M4.95583 14.5233H0.450012V15.6861H4.95583V14.5233Z" fill="#313435"/>
<path d="M27.6593 14.5233H23.1535V15.6861H27.6593V14.5233Z" fill="#313435"/>
<path d="M23.2404 5.09491L20.0543 8.281L20.8765 9.10322L24.0626 5.91712L23.2404 5.09491Z" fill="#313435"/>
<path d="M4.87025 5.1043L4.04803 5.92651L7.23207 9.11055L8.05429 8.28833L4.87025 5.1043Z" fill="#313435"/>
</svg>
